<svg xmlns="http://www.w3.org/2000/svg" viewBox="15.2 1.5 189.5 266.0" width="220" height="288" role="img" aria-label="Lantern">
  <defs><filter id="inked" x="-12%" y="-12%" width="124%" height="124%"><feTurbulence type="fractalNoise" baseFrequency="0.013 0.021" numOctaves="2" seed="7" result="w"/><feDisplacementMap in="SourceGraphic" in2="w" scale="4.2"/></filter>
    <linearGradient id="glass" x1="0" y1="0" x2="0" y2="1">
      <stop offset="0" stop-color="#D9A0A6" stop-opacity=".55"/>
      <stop offset="1" stop-color="#9C3540" stop-opacity=".85"/>
    </linearGradient>
    <linearGradient id="flame" x1="0" y1="0" x2="0" y2="1">
      <stop offset="0" stop-color="#D9A0A6"/>
      <stop offset="1" stop-color="#9C3540"/>
    </linearGradient>
    <radialGradient id="halo" cx=".5" cy=".55" r=".5">
      <stop offset="0" stop-color="#C98B92" stop-opacity=".38"/>
      <stop offset="1" stop-color="#C98B92" stop-opacity="0"/>
    </radialGradient>
  </defs><g filter="url(#inked)"><ellipse cx="110.0" cy="160" rx="86" ry="92" fill="url(#halo)"/><g stroke="#7A2029" stroke-width="5.5" stroke-linecap="round" opacity=".85"><line x1="174.0" y1="160.0" x2="196.0" y2="160.0"/><line x1="46.0" y1="160.0" x2="24.0" y2="160.0"/><line x1="170.9" y1="140.2" x2="191.8" y2="133.4"/><line x1="49.1" y1="140.2" x2="28.2" y2="133.4"/><line x1="170.9" y1="179.8" x2="191.8" y2="186.6"/><line x1="49.1" y1="179.8" x2="28.2" y2="186.6"/><line x1="161.8" y1="122.4" x2="179.6" y2="109.5"/><line x1="58.2" y1="122.4" x2="40.4" y2="109.5"/><line x1="161.8" y1="197.6" x2="179.6" y2="210.5"/><line x1="58.2" y1="197.6" x2="40.4" y2="210.5"/></g><path d="M77,113 L143,113 L147,207 L73,207 Z" fill="url(#glass)"/>
  <g fill="#F2E9DE">
    <circle cx="110.0" cy="24" r="13" fill="none" stroke="#F2E9DE" stroke-width="7"/>
    <rect x="104" y="35" width="12" height="14" rx="3"/>
    <circle cx="110.0" cy="53" r="7.5"/>
    <path d="M110,58 C132,64 152,79 161,95 L59,95 C68,79 88,64 110,58 Z"/>
    <rect x="53" y="95" width="114" height="11" rx="3.5"/>
    <path d="M70.0,106.0 L150.0,106.0 L154.0,214.0 L66.0,214.0 Z
             M77.0,113.0 L143.0,113.0
             L147.0,207.0 L73.0,207.0 Z"
          fill-rule="evenodd"/>
    <path d="M93.7,106.0 L99.7,106.0 L98.3,214.0 L92.3,214.0 Z"/>
    <path d="M120.3,106.0 L126.3,106.0 L127.7,214.0 L121.7,214.0 Z"/>
    <rect x="55" y="214" width="110" height="12" rx="3.5"/>
    <path d="M68,226 L152,226 L141,245 L79,245 Z"/>
    <circle cx="110.0" cy="253" r="8.5"/>
  </g>
  <g>
    <rect x="99" y="168" width="22" height="40" rx="3" fill="#F2E9DE"/>
    <path d="M110,124 C123,143 126,157 118,168 C114,173 106,173 102,168
             C94,157 97,143 110,124 Z" fill="url(#flame)"/>
    <path d="M110,142 C116,152 117,160 113,166 C111,169 109,169 107,166
             C103,160 104,152 110,142 Z" fill="#D9A0A6"/>
  </g></g></svg>